<svg xmlns="http://www.w3.org/2000/svg" xmlns:xlink="http://www.w3.org/1999/xlink" contentStyleType="text/css" data-diagram-type="STATE" height="1116px" preserveAspectRatio="none" style="width:770px;height:1116px;background:#FFFFFF;" version="1.1" viewBox="0 0 770 1116" width="770px" zoomAndPan="magnify"><?plantuml 1.2026.6?><defs/><g><g class="entity" data-qualified-name="queued" data-source-line="13" id="ent0001"><rect fill="#E0F2FE" height="50" rx="12.5" ry="12.5" style="stroke:#0EA5E9;stroke-width:0.5;" width="63.3711" x="650.13" y="87"/><line style="stroke:#0EA5E9;stroke-width:0.5;" x1="650.13" x2="713.5011" y1="111.1328" y2="111.1328"/><text fill="#0C4A6E" font-family="'JetBrains Mono'" font-size="12" lengthAdjust="spacing" textLength="43.3711" x="660.13" y="103.6016">queued</text></g><g class="entity" data-qualified-name="workspace" data-source-line="14" id="ent0002"><rect fill="#E0F2FE" height="50" rx="12.5" ry="12.5" style="stroke:#0EA5E9;stroke-width:0.5;" width="81.6699" x="584.98" y="213"/><line style="stroke:#0EA5E9;stroke-width:0.5;" x1="584.98" x2="666.6499" y1="237.1328" y2="237.1328"/><text fill="#0C4A6E" font-family="'JetBrains Mono'" font-size="12" lengthAdjust="spacing" textLength="61.6699" x="594.98" y="229.6016">workspace</text></g><g class="entity" data-qualified-name="branch" data-source-line="15" id="ent0003"><rect fill="#E0F2FE" height="50" rx="12.5" ry="12.5" style="stroke:#0EA5E9;stroke-width:0.5;" width="60.1309" x="436.75" y="339"/><line style="stroke:#0EA5E9;stroke-width:0.5;" x1="436.75" x2="496.8809" y1="363.1328" y2="363.1328"/><text fill="#0C4A6E" font-family="'JetBrains Mono'" font-size="12" lengthAdjust="spacing" textLength="40.1309" x="446.75" y="355.6016">branch</text></g><g class="entity" data-qualified-name="compress" data-source-line="16" id="ent0004"><rect fill="#E0F2FE" height="50" rx="12.5" ry="12.5" style="stroke:#0EA5E9;stroke-width:0.5;" width="76.1035" x="449.76" y="465"/><line style="stroke:#0EA5E9;stroke-width:0.5;" x1="449.76" x2="525.8635" y1="489.1328" y2="489.1328"/><text fill="#0C4A6E" font-family="'JetBrains Mono'" font-size="12" lengthAdjust="spacing" textLength="56.1035" x="459.76" y="481.6016">compress</text></g><g class="entity" data-qualified-name="convert" data-source-line="17" id="ent0005"><rect fill="#E0F2FE" height="50" rx="12.5" ry="12.5" style="stroke:#0EA5E9;stroke-width:0.5;" width="63.2598" x="326.18" y="591"/><line style="stroke:#0EA5E9;stroke-width:0.5;" x1="326.18" x2="389.4398" y1="615.1328" y2="615.1328"/><text fill="#0C4A6E" font-family="'JetBrains Mono'" font-size="12" lengthAdjust="spacing" textLength="43.2598" x="336.18" y="607.6016">convert</text></g><g class="entity" data-qualified-name="rename" data-source-line="18" id="ent0006"><rect fill="#E0F2FE" height="50" rx="12.5" ry="12.5" style="stroke:#0EA5E9;stroke-width:0.5;" width="63.5586" x="265.04" y="717"/><line style="stroke:#0EA5E9;stroke-width:0.5;" x1="265.04" x2="328.5986" y1="741.1328" y2="741.1328"/><text fill="#0C4A6E" font-family="'JetBrains Mono'" font-size="12" lengthAdjust="spacing" textLength="43.5586" x="275.04" y="733.6016">rename</text></g><g class="entity" data-qualified-name="push" data-source-line="19" id="ent0007"><rect fill="#E0F2FE" height="50" rx="12.5" ry="12.5" style="stroke:#0EA5E9;stroke-width:0.5;" width="50" x="162.81" y="843"/><line style="stroke:#0EA5E9;stroke-width:0.5;" x1="162.81" x2="212.81" y1="867.1328" y2="867.1328"/><text fill="#0C4A6E" font-family="'JetBrains Mono'" font-size="12" lengthAdjust="spacing" textLength="28.5645" x="173.5278" y="859.6016">push</text></g><g class="entity" data-qualified-name="done" data-source-line="20" id="ent0008"><rect fill="#D1FAE5" height="50" rx="12.5" ry="12.5" style="stroke:#0EA5E9;stroke-width:0.5;" width="50" x="206.81" y="969"/><line style="stroke:#0EA5E9;stroke-width:0.5;" x1="206.81" x2="256.81" y1="993.1328" y2="993.1328"/><text fill="#0C4A6E" font-family="'JetBrains Mono'" font-size="12" lengthAdjust="spacing" textLength="29.0566" x="217.2817" y="985.6016">done</text></g><g class="entity" data-qualified-name="failed" data-source-line="21" id="ent0009"><rect fill="#FEE2E2" height="50" rx="12.5" ry="12.5" style="stroke:#0EA5E9;stroke-width:0.5;" width="52.2148" x="441.71" y="969"/><line style="stroke:#0EA5E9;stroke-width:0.5;" x1="441.71" x2="493.9248" y1="993.1328" y2="993.1328"/><text fill="#0C4A6E" font-family="'JetBrains Mono'" font-size="12" lengthAdjust="spacing" textLength="32.2148" x="451.71" y="985.6016">failed</text></g><g class="start_entity" data-qualified-name=".start." data-source-line="23" id="ent0010"><ellipse cx="681.81" cy="16" fill="#222222" rx="10" ry="10" style="stroke:#222222;stroke-width:1;"/></g><g class="end_entity" data-qualified-name=".end." data-source-line="32" id="ent0020"><ellipse cx="273.81" cy="1091" fill="none" rx="11" ry="11" style="stroke:#222222;stroke-width:1;"/><ellipse cx="273.81" cy="1091" fill="#222222" rx="6" ry="6" style="stroke:#222222;stroke-width:1;"/></g><!--link *start* to queued--><g class="link" data-entity-1="ent0010" data-entity-2="ent0001" data-link-type="dependency" data-source-line="23" id="lnk11"><path d="M681.81,26.36 C681.81,40.29 681.81,61.95 681.81,81.65" fill="none" id="*start*-to-queued" style="stroke:#4F46E5;stroke-width:1;"/><polygon fill="#4F46E5" points="681.81,86.65,685.81,77.65,681.81,81.65,677.81,77.65,681.81,86.65" style="stroke:#4F46E5;stroke-width:1;stroke-linejoin:miter;stroke-miterlimit:10;"/></g><!--link queued to workspace--><g class="link" data-entity-1="ent0001" data-entity-2="ent0002" data-link-type="dependency" data-source-line="24" id="lnk12"><path d="M649.65,134.04 C639.05,142.83 628.52,154.04 622.81,167 C616.54,181.25 616.4692,193.8178 618.7892,207.7578" fill="none" id="queued-to-workspace" style="stroke:#4F46E5;stroke-width:1;"/><polygon fill="#4F46E5" points="619.61,212.69,622.0782,203.1554,618.7892,207.7578,614.1867,204.4688,619.61,212.69" style="stroke:#4F46E5;stroke-width:1;stroke-linejoin:miter;stroke-miterlimit:10;"/><text fill="#1E1B4B" font-family="'JetBrains Mono'" font-size="12" lengthAdjust="spacing" textLength="87.4199" x="623.81" y="179.6016">&#128193; clone hero/</text></g><!--link workspace to branch--><g class="link" data-entity-1="ent0002" data-entity-2="ent0003" data-link-type="dependency" data-source-line="25" id="lnk13"><path d="M584.67,252.74 C562.03,261.71 534.45,275.11 513.81,293 C499.22,305.66 489.6274,319.5099 481.3874,334.1899" fill="none" id="workspace-to-branch" style="stroke:#4F46E5;stroke-width:1;"/><polygon fill="#4F46E5" points="478.94,338.55,486.8333,332.6597,481.3874,334.1899,479.8572,328.7439,478.94,338.55" style="stroke:#4F46E5;stroke-width:1;stroke-linejoin:miter;stroke-miterlimit:10;"/><text fill="#1E1B4B" font-family="'JetBrains Mono'" font-size="12" lengthAdjust="spacing" textLength="125.9453" x="514.81" y="305.6016">&#127807; checkout -B name</text></g><!--link branch to compress--><g class="link" data-entity-1="ent0003" data-entity-2="ent0004" data-link-type="dependency" data-source-line="26" id="lnk14"><path d="M436.6,384.54 C419.97,397.92 404.42,416.52 413.81,435 C421.52,450.17 431.4863,459.4299 445.3963,468.1699" fill="none" id="branch-to-compress" style="stroke:#4F46E5;stroke-width:1;"/><polygon fill="#4F46E5" points="449.63,470.83,444.1375,462.6549,445.3963,468.1699,439.8813,469.4287,449.63,470.83" style="stroke:#4F46E5;stroke-width:1;stroke-linejoin:miter;stroke-miterlimit:10;"/><text fill="#1E1B4B" font-family="'JetBrains Mono'" font-size="12" lengthAdjust="spacing" textLength="137.3262" x="414.81" y="431.6016">&#9881;&#65039; PreCompress enabled</text></g><!--link branch to convert--><g class="link" data-entity-1="ent0003" data-entity-2="ent0005" data-link-type="dependency" data-source-line="27" id="lnk15"><path d="M436.28,374.85 C399.58,388.52 339.71,417.14 313.81,465 C291.54,506.17 316.4877,555.8089 336.9477,586.5189" fill="none" id="branch-to-convert" style="stroke:#4F46E5;stroke-width:1;"/><polygon fill="#4F46E5" points="339.72,590.68,338.0588,580.9722,336.9477,586.5189,331.4011,585.4078,339.72,590.68" style="stroke:#4F46E5;stroke-width:1;stroke-linejoin:miter;stroke-miterlimit:10;"/><text fill="#1E1B4B" font-family="'JetBrains Mono'" font-size="12" lengthAdjust="spacing" textLength="116.2773" x="314.81" y="494.6016">&#9193; PreCompress off</text></g><!--link compress to convert--><g class="link" data-entity-1="ent0004" data-entity-2="ent0005" data-link-type="dependency" data-source-line="28" id="lnk16"><path d="M462.13,515.5 C439.34,537.24 409.838,565.3789 387.068,587.0989" fill="none" id="compress-to-convert" style="stroke:#4F46E5;stroke-width:1;"/><polygon fill="#4F46E5" points="383.45,590.55,392.7232,587.2323,387.068,587.0989,387.2014,581.4436,383.45,590.55" style="stroke:#4F46E5;stroke-width:1;stroke-linejoin:miter;stroke-miterlimit:10;"/></g><!--link convert to rename--><g class="link" data-entity-1="ent0005" data-entity-2="ent0006" data-link-type="dependency" data-source-line="29" id="lnk17"><path d="M326.02,635.26 C313.55,644.27 300.61,656.37 293.81,671 C287.25,685.12 287.1568,697.6916 289.5468,711.6616" fill="none" id="convert-to-rename" style="stroke:#4F46E5;stroke-width:1;"/><polygon fill="#4F46E5" points="290.39,716.59,292.815,707.0444,289.5468,711.6616,284.9296,708.3934,290.39,716.59" style="stroke:#4F46E5;stroke-width:1;stroke-linejoin:miter;stroke-miterlimit:10;"/><text fill="#1E1B4B" font-family="'JetBrains Mono'" font-size="12" lengthAdjust="spacing" textLength="98.4785" x="294.81" y="683.6016">&#9986;&#65039; .ts &#8594; .married</text></g><!--link rename to push--><g class="link" data-entity-1="ent0006" data-entity-2="ent0007" data-link-type="dependency" data-source-line="30" id="lnk18"><path d="M264.76,748.8 C238.24,755.48 202.21,769.31 184.81,797 C176.4,810.39 176.3077,823.3315 179.2377,837.6515" fill="none" id="rename-to-push" style="stroke:#4F46E5;stroke-width:1;"/><polygon fill="#4F46E5" points="180.24,842.55,182.3547,832.9309,179.2377,837.6515,174.5171,834.5345,180.24,842.55" style="stroke:#4F46E5;stroke-width:1;stroke-linejoin:miter;stroke-miterlimit:10;"/><text fill="#1E1B4B" font-family="'JetBrains Mono'" font-size="12" lengthAdjust="spacing" textLength="145.8438" x="185.81" y="809.6016">&#128640; commit + force-push</text></g><!--link push to done--><g class="link" data-entity-1="ent0007" data-entity-2="ent0008" data-link-type="dependency" data-source-line="31" id="lnk19"><path d="M162.47,871.33 C111.87,876.97 6,894.37 39.81,939 C59.99,965.63 153.9212,982.0866 201.3712,988.9266" fill="none" id="push-to-done" style="stroke:#4F46E5;stroke-width:1;"/><polygon fill="#4F46E5" points="206.32,989.64,197.9828,984.3968,201.3712,988.9266,196.8414,992.315,206.32,989.64" style="stroke:#4F46E5;stroke-width:1;stroke-linejoin:miter;stroke-miterlimit:10;"/><text fill="#1E1B4B" font-family="'JetBrains Mono'" font-size="12" lengthAdjust="spacing" textLength="160.3457" x="40.81" y="935.6016">&#9989; cleanup + delete source</text></g><!--link done to *end*--><g class="link" data-entity-1="ent0008" data-entity-2="ent0020" data-link-type="dependency" data-source-line="32" id="lnk21"><path d="M242.63,1019.46 C251.48,1039.48 261.4899,1062.1063 267.6999,1076.1663" fill="none" id="done-to-*end*" style="stroke:#4F46E5;stroke-width:1;"/><polygon fill="#4F46E5" points="269.72,1080.74,269.7428,1070.8912,267.6999,1076.1663,262.4248,1074.1234,269.72,1080.74" style="stroke:#4F46E5;stroke-width:1;stroke-linejoin:miter;stroke-miterlimit:10;"/></g><!--link queued to failed--><g class="link" data-entity-1="ent0001" data-entity-2="ent0009" data-link-type="dependency" data-source-line="34" id="lnk22"><path d="M700.15,137.19 C716.48,161.19 737.81,199.68 737.81,237 C737.81,237 737.81,237 737.81,869 C737.81,975.52 567.1279,990.7365 499.1979,992.6865" fill="none" id="queued-to-failed" style="stroke:#4F46E5;stroke-width:1;"/><polygon fill="#4F46E5" points="494.2,992.83,503.3111,996.5701,499.1979,992.6865,503.0815,988.5734,494.2,992.83" style="stroke:#4F46E5;stroke-width:1;stroke-linejoin:miter;stroke-miterlimit:10;"/><text fill="#1E1B4B" font-family="'JetBrains Mono'" font-size="12" lengthAdjust="spacing" textLength="16" x="738.81" y="557.6016">&#128165;</text></g><!--link workspace to failed--><g class="link" data-entity-1="ent0002" data-entity-2="ent0009" data-link-type="dependency" data-source-line="35" id="lnk23"><path d="M639.01,263.39 C651,287.85 666.81,326.95 666.81,363 C666.81,363 666.81,363 666.81,869 C666.81,949.4 553.2935,978.6786 499.1635,988.2586" fill="none" id="workspace-to-failed" style="stroke:#4F46E5;stroke-width:1;"/><polygon fill="#4F46E5" points="494.24,989.13,503.7994,991.5003,499.1635,988.2586,502.4052,983.6228,494.24,989.13" style="stroke:#4F46E5;stroke-width:1;stroke-linejoin:miter;stroke-miterlimit:10;"/><text fill="#1E1B4B" font-family="'JetBrains Mono'" font-size="12" lengthAdjust="spacing" textLength="16" x="667.81" y="620.6016">&#128165;</text></g><!--link branch to failed--><g class="link" data-entity-1="ent0003" data-entity-2="ent0009" data-link-type="dependency" data-source-line="36" id="lnk24"><path d="M497.06,376.45 C516.67,385.31 541.36,399.39 556.81,419 C577,444.61 578.81,456.39 578.81,489 C578.81,489 578.81,489 578.81,869 C578.81,919.42 531.5156,956.1278 498.6756,976.0378" fill="none" id="branch-to-failed" style="stroke:#4F46E5;stroke-width:1;"/><polygon fill="#4F46E5" points="494.4,978.63,504.1698,977.3846,498.6756,976.0378,500.0223,970.5436,494.4,978.63" style="stroke:#4F46E5;stroke-width:1;stroke-linejoin:miter;stroke-miterlimit:10;"/><text fill="#1E1B4B" font-family="'JetBrains Mono'" font-size="12" lengthAdjust="spacing" textLength="16" x="579.81" y="683.6016">&#128165;</text></g><!--link compress to failed--><g class="link" data-entity-1="ent0004" data-entity-2="ent0009" data-link-type="dependency" data-source-line="37" id="lnk25"><path d="M494.03,515.05 C499.9,539.9 507.81,579.89 507.81,615 C507.81,615 507.81,615 507.81,869 C507.81,904.97 494.5346,939.5781 482.8446,964.0581" fill="none" id="compress-to-failed" style="stroke:#4F46E5;stroke-width:1;"/><polygon fill="#4F46E5" points="480.69,968.57,488.1778,962.1722,482.8446,964.0581,480.9587,958.7248,480.69,968.57" style="stroke:#4F46E5;stroke-width:1;stroke-linejoin:miter;stroke-miterlimit:10;"/><text fill="#1E1B4B" font-family="'JetBrains Mono'" font-size="12" lengthAdjust="spacing" textLength="16" x="508.81" y="746.6016">&#128165;</text></g><!--link convert to failed--><g class="link" data-entity-1="ent0005" data-entity-2="ent0009" data-link-type="dependency" data-source-line="38" id="lnk26"><path d="M379.32,641.42 C386.12,650.23 393.09,660.59 397.81,671 C445.19,775.46 460.8704,908.8285 465.6204,963.9085" fill="none" id="convert-to-failed" style="stroke:#4F46E5;stroke-width:1;"/><polygon fill="#4F46E5" points="466.05,968.89,469.2619,959.5796,465.6204,963.9085,461.2915,960.267,466.05,968.89" style="stroke:#4F46E5;stroke-width:1;stroke-linejoin:miter;stroke-miterlimit:10;"/><text fill="#1E1B4B" font-family="'JetBrains Mono'" font-size="12" lengthAdjust="spacing" textLength="16" x="443.61" y="809.6016">&#128165;</text></g><!--link rename to failed--><g class="link" data-entity-1="ent0006" data-entity-2="ent0009" data-link-type="dependency" data-source-line="39" id="lnk27"><path d="M315.86,767.35 C322.56,776.41 329.88,786.94 335.81,797 C371.28,857.1 360.07,883.84 402.81,939 C413.6,952.92 424.5444,962.6575 437.3944,972.2575" fill="none" id="rename-to-failed" style="stroke:#4F46E5;stroke-width:1;"/><polygon fill="#4F46E5" points="441.4,975.25,436.5839,966.659,437.3944,972.2575,431.7959,973.068,441.4,975.25" style="stroke:#4F46E5;stroke-width:1;stroke-linejoin:miter;stroke-miterlimit:10;"/><text fill="#1E1B4B" font-family="'JetBrains Mono'" font-size="12" lengthAdjust="spacing" textLength="16" x="375.94" y="872.6016">&#128165;</text></g><!--link push to failed--><g class="link" data-entity-1="ent0007" data-entity-2="ent0009" data-link-type="dependency" data-source-line="40" id="lnk28"><path d="M200.73,893.25 C210.14,908.62 224.29,927.66 241.81,939 C305.16,979.97 391.557,989.6351 436.227,992.0051" fill="none" id="push-to-failed" style="stroke:#4F46E5;stroke-width:1;"/><polygon fill="#4F46E5" points="441.22,992.27,432.4446,987.7988,436.227,992.0051,432.0207,995.7876,441.22,992.27" style="stroke:#4F46E5;stroke-width:1;stroke-linejoin:miter;stroke-miterlimit:10;"/><text fill="#1E1B4B" font-family="'JetBrains Mono'" font-size="12" lengthAdjust="spacing" textLength="88.0117" x="242.81" y="935.6016">&#128165; source kept</text></g><!--link failed to *end*--><g class="link" data-entity-1="ent0009" data-entity-2="ent0020" data-link-type="dependency" data-source-line="41" id="lnk29"><path d="M441.25,1008.01 C397.45,1029.45 316.6005,1069.051 287.9505,1083.081" fill="none" id="failed-to-*end*" style="stroke:#4F46E5;stroke-width:1;"/><polygon fill="#4F46E5" points="283.46,1085.28,293.3021,1084.9142,287.9505,1083.081,289.7837,1077.7294,283.46,1085.28" style="stroke:#4F46E5;stroke-width:1;stroke-linejoin:miter;stroke-miterlimit:10;"/></g><?plantuml-src RPB1RjGm48RlVehHzWRQTdUrhGG7fCtMEI21a3WY3jvaqesIsC5sg0H20YGu8LLgJrH8d3Zm1jnubxu0F4BjsBk9tVeqyV_zC_RlgAhaBPEiWGtBgZCfEfwlHIqa7AJz8cfFv5YmhjQfuDeZSpfFbidzo7FM84oUeauaAxc2PuABoVteo_8Tmdmn4bTIYdC_P9akJ-ZnI5IQQOJt1229pqndwIAbLX4oH-btPtHrJ1-PtT7HP-lbweII3uIuTfCt7NQOJu0fSEM-cmVEXQnKopBicVrNZ6qauzcsPrmP0vbeMebAzSZkuox4twBKdkdh6978JSGzuSeOQ3lbpc6BMCm5TrvRmC7fF5tPa9rOiBBsMRZI_0sKBkY2a5SFNiDq-iHdH7nKPjdD8PJ7yF_drIV8QjjzYr8SaK6qgC_6B8j--mlP5hDAT1gc2TZRa86m_3uemzzSV__tvm9UI5plTaq06tFEEoQNN6-w-1quH56GeUc89eFBxlfiNOyVd-tWGwtWvkib73PCoj9C7HZhwEE6tTMkFzgpDwM6Xr08cU7KwcI0hAL_1DWD-M9oGyQxrbXohD4yYHATiPA1ioxp5YHw0VzSTl3bhoZoK0kJ2hKmbrWRfnDgOGwX5buuqFpjeC9M4w-ChdWB?></g></svg>