<svg xmlns="http://www.w3.org/2000/svg" xmlns:xlink="http://www.w3.org/1999/xlink" contentStyleType="text/css" data-diagram-type="DESCRIPTION" height="618px" preserveAspectRatio="none" style="width:386px;height:618px;background:#FFFFFF;" version="1.1" viewBox="0 0 386 618" width="386px" zoomAndPan="magnify"><?plantuml 1.2026.6?><defs/><g><!--cluster presentation--><g class="cluster" data-qualified-name="presentation" data-source-line="15" id="ent0002"><path d="M8.5,99.91 L130.9443,99.91 A3.75,3.75 0 0 1 133.4443,102.41 L140.4443,118.8651 L368.5,118.8651 A2.5,2.5 0 0 1 371,121.3651 L371,190.32 A2.5,2.5 0 0 1 368.5,192.82 L8.5,192.82 A2.5,2.5 0 0 1 6,190.32 L6,102.41 A2.5,2.5 0 0 1 8.5,99.91" fill="#E0F2FE" style="stroke:#6366F1;stroke-width:1.5;"/><line style="stroke:#6366F1;stroke-width:1.5;" x1="6" x2="140.4443" y1="118.8651" y2="118.8651"/><text fill="#3730A3" font-family="'JetBrains Mono'" font-size="11" font-weight="700" lengthAdjust="spacing" textLength="121.4443" x="10" y="112.5448">&#128309; Presentation layer</text></g><!--cluster domain--><g class="cluster" data-qualified-name="domain" data-source-line="20" id="ent0005"><path d="M92.5,238.82 L304.8779,238.82 A3.75,3.75 0 0 1 307.3779,241.32 L314.3779,257.7751 L314.5,257.7751 A2.5,2.5 0 0 1 317,260.2751 L317,487.96 A2.5,2.5 0 0 1 314.5,490.46 L92.5,490.46 A2.5,2.5 0 0 1 90,487.96 L90,241.32 A2.5,2.5 0 0 1 92.5,238.82" fill="#D1FAE5" style="stroke:#6366F1;stroke-width:1.5;"/><line style="stroke:#6366F1;stroke-width:1.5;" x1="90" x2="314.3779" y1="257.7751" y2="257.7751"/><text fill="#3730A3" font-family="'JetBrains Mono'" font-size="11" font-weight="700" lengthAdjust="spacing" textLength="211.3779" x="94" y="251.4548">&#128994; Domain core  &#8212;  internal/pipeline</text></g><!--cluster os_layer--><g class="cluster" data-qualified-name="os_layer" data-source-line="26" id="ent0009"><path d="M27.5,523.46 L153.9834,523.46 A3.75,3.75 0 0 1 156.4834,525.96 L163.4834,542.4151 L342.5,542.4151 A2.5,2.5 0 0 1 345,544.9151 L345,600.92 A2.5,2.5 0 0 1 342.5,603.42 L27.5,603.42 A2.5,2.5 0 0 1 25,600.92 L25,525.96 A2.5,2.5 0 0 1 27.5,523.46" fill="#F3F4F6" style="stroke:#6366F1;stroke-width:1.5;"/><line style="stroke:#6366F1;stroke-width:1.5;" x1="25" x2="163.4834" y1="542.4151" y2="542.4151"/><text fill="#3730A3" font-family="'JetBrains Mono'" font-size="11" font-weight="700" lengthAdjust="spacing" textLength="125.4834" x="29" y="536.0948">&#11035; OS / external tools</text></g><!--entity tui--><g class="entity" data-qualified-name="presentation.tui" data-source-line="16" id="ent0003"><rect fill="#E0F2FE" height="45.9102" rx="2.5" ry="2.5" style="stroke:#181818;stroke-width:2;" width="167.6621" x="22.17" y="130.91"/><text fill="#1E1B4B" font-family="'JetBrains Mono'" font-size="11" lengthAdjust="spacing" textLength="60.7202" x="32.17" y="151.5448">internal/tui</text><text fill="#1E1B4B" font-family="'JetBrains Mono'" font-size="11" lengthAdjust="spacing" textLength="147.6621" x="32.17" y="164.4998">Bubble Tea &#183; live dashboard</text></g><!--entity plain--><g class="entity" data-qualified-name="presentation.plain" data-source-line="17" id="ent0004"><rect fill="#E0F2FE" height="45.9102" rx="2.5" ry="2.5" style="stroke:#181818;stroke-width:2;" width="130.0913" x="224.95" y="130.91"/><text fill="#1E1B4B" font-family="'JetBrains Mono'" font-size="11" lengthAdjust="spacing" textLength="43.4951" x="234.95" y="151.5448">runPlain</text><text fill="#1E1B4B" font-family="'JetBrains Mono'" font-size="11" lengthAdjust="spacing" textLength="110.0913" x="234.95" y="164.4998">CI / non-TTY output</text></g><!--entity runner_core--><g class="entity" data-qualified-name="domain.runner_core" data-source-line="21" id="ent0006"><rect fill="#D1FAE5" height="45.9102" rx="2.5" ry="2.5" style="stroke:#181818;stroke-width:2;" width="160.7817" x="122.61" y="269.82"/><text fill="#1E1B4B" font-family="'JetBrains Mono'" font-size="11" lengthAdjust="spacing" textLength="38.0649" x="132.61" y="290.4548">Runner</text><text fill="#1E1B4B" font-family="'JetBrains Mono'" font-size="11" lengthAdjust="spacing" textLength="140.7817" x="132.61" y="303.4098">orchestrator &#183; semaphores</text></g><!--entity steps--><g class="entity" data-qualified-name="domain.steps" data-source-line="22" id="ent0007"><rect fill="#D1FAE5" height="97.7305" rx="2.5" ry="2.5" style="stroke:#181818;stroke-width:2;" width="110.7876" x="147.61" y="376.73"/><text fill="#1E1B4B" font-family="'JetBrains Mono'" font-size="11" lengthAdjust="spacing" textLength="90.7876" x="157.61" y="397.3648">prepareBaseHero</text><text fill="#1E1B4B" font-family="'JetBrains Mono'" font-size="11" lengthAdjust="spacing" textLength="87.0654" x="157.61" y="410.3198">setupWorkspace</text><text fill="#1E1B4B" font-family="'JetBrains Mono'" font-size="11" lengthAdjust="spacing" textLength="81.6084" x="157.61" y="423.2749">compressVideo</text><text fill="#1E1B4B" font-family="'JetBrains Mono'" font-size="11" lengthAdjust="spacing" textLength="73.2402" x="157.61" y="436.23">convertToHLS</text><text fill="#1E1B4B" font-family="'JetBrains Mono'" font-size="11" lengthAdjust="spacing" textLength="89.8101" x="157.61" y="449.1851">git commit/push</text><text fill="#1E1B4B" font-family="'JetBrains Mono'" font-size="11" lengthAdjust="spacing" textLength="41.5938" x="157.61" y="462.1402">cleanup</text></g><!--entity ffmpeg_bin--><g class="entity" data-qualified-name="os_layer.ffmpeg_bin" data-source-line="27" id="ent0010"><rect fill="#F3F4F6" height="32.9551" rx="2.5" ry="2.5" style="stroke:#181818;stroke-width:2;" width="110.3203" x="40.84" y="554.46"/><text fill="#1E1B4B" font-family="'JetBrains Mono'" font-size="11" lengthAdjust="spacing" textLength="90.3203" x="50.84" y="575.0948">ffmpeg / ffprobe</text></g><!--entity git_bin--><g class="entity" data-qualified-name="os_layer.git_bin" data-source-line="28" id="ent0011"><rect fill="#F3F4F6" height="32.9551" rx="2.5" ry="2.5" style="stroke:#181818;stroke-width:2;" width="34.1528" x="185.92" y="554.46"/><text fill="#1E1B4B" font-family="'JetBrains Mono'" font-size="11" lengthAdjust="spacing" textLength="14.1528" x="195.92" y="575.0948">git</text></g><!--entity fs_bin--><g class="entity" data-qualified-name="os_layer.fs_bin" data-source-line="29" id="ent0012"><rect fill="#F3F4F6" height="32.9551" rx="2.5" ry="2.5" style="stroke:#181818;stroke-width:2;" width="74.0063" x="255" y="554.46"/><text fill="#1E1B4B" font-family="'JetBrains Mono'" font-size="11" lengthAdjust="spacing" textLength="54.0063" x="265" y="575.0948">filesystem</text></g><!--entity cli--><g class="entity" data-qualified-name="cli" data-source-line="13" id="ent0001"><rect fill="#EDE9FE" height="45.9102" rx="2.5" ry="2.5" style="stroke:#181818;stroke-width:2;" width="225.7236" x="84.14" y="7"/><text fill="#1E1B4B" font-family="'JetBrains Mono'" font-size="11" lengthAdjust="spacing" textLength="100.916" x="94.14" y="27.6348">&#128995; cmd/ivideo-hls</text><text fill="#1E1B4B" font-family="'JetBrains Mono'" font-size="11" lengthAdjust="spacing" textLength="205.7236" x="94.14" y="40.5898">Cobra CLI &#183; flag parsing &#183; prereq check</text></g><!--link runner_core to steps--><g class="link" data-entity-1="ent0006" data-entity-2="ent0007" data-link-type="dependency" data-source-line="23" id="lnk8"><path d="M203,315.97 C203,332.52 203,350.75 203,371.48" fill="none" id="runner_core-to-steps" style="stroke:#059669;stroke-width:1.8;"/><polygon fill="#059669" points="203,376.48,207,367.48,203,371.48,199,367.48,203,376.48" style="stroke:#059669;stroke-width:1.8;stroke-linejoin:miter;stroke-miterlimit:10;"/></g><!--link cli to tui--><g class="link" data-entity-1="ent0001" data-entity-2="ent0003" data-link-type="dependency" data-source-line="32" id="lnk13"><path d="M180.31,53.32 C163.89,75.32 141.9615,104.6937 125.5715,126.6437" fill="none" id="cli-to-tui" style="stroke:#7C3AED;stroke-width:1.8;"/><polygon fill="#7C3AED" points="122.58,130.65,131.1698,125.8318,125.5715,126.6437,124.7597,121.0454,122.58,130.65" style="stroke:#7C3AED;stroke-width:1.8;stroke-linejoin:miter;stroke-miterlimit:10;"/></g><!--link cli to plain--><g class="link" data-entity-1="ent0001" data-entity-2="ent0004" data-link-type="dependency" data-source-line="33" id="lnk14"><path d="M214.06,53.32 C230.84,75.32 253.2779,104.7243 270.0179,126.6743" fill="none" id="cli-to-plain" style="stroke:#7C3AED;stroke-width:1.8;"/><polygon fill="#7C3AED" points="273.05,130.65,270.7729,121.068,270.0179,126.6743,264.4117,125.9193,273.05,130.65" style="stroke:#7C3AED;stroke-width:1.8;stroke-linejoin:miter;stroke-miterlimit:10;"/></g><!--link tui to runner_core--><g class="link" data-entity-1="ent0003" data-entity-2="ent0006" data-link-type="dependency" data-source-line="34" id="lnk15"><path d="M121.8,177.17 C139.84,202.63 166.2793,239.9503 184.3193,265.4103" fill="none" id="tui-to-runner_core" style="stroke:#0EA5E9;stroke-width:1.8;"/><polygon fill="#0EA5E9" points="187.21,269.49,185.2705,259.834,184.3193,265.4103,178.743,264.4591,187.21,269.49" style="stroke:#0EA5E9;stroke-width:1.8;stroke-linejoin:miter;stroke-miterlimit:10;"/><text fill="#1E1B4B" font-family="'JetBrains Mono'" font-size="11" lengthAdjust="spacing" textLength="56.7495" x="152.59" y="220.4548">&#128225; Emitter</text></g><!--link plain to runner_core--><g class="link" data-entity-1="ent0004" data-entity-2="ent0006" data-link-type="dependency" data-source-line="35" id="lnk16"><path d="M275.83,177.17 C259.65,202.63 236.0206,239.8093 219.8506,265.2693" fill="none" id="plain-to-runner_core" style="stroke:#0EA5E9;stroke-width:1.8;"/><polygon fill="#0EA5E9" points="217.17,269.49,225.3717,264.0372,219.8506,265.2693,218.6186,259.7483,217.17,269.49" style="stroke:#0EA5E9;stroke-width:1.8;stroke-linejoin:miter;stroke-miterlimit:10;"/><text fill="#1E1B4B" font-family="'JetBrains Mono'" font-size="11" lengthAdjust="spacing" textLength="56.7495" x="255.29" y="220.4548">&#128225; Emitter</text></g><!--link steps to ffmpeg_bin--><g class="link" data-entity-1="ent0007" data-entity-2="ent0010" data-link-type="dependency" data-source-line="36" id="lnk17"><path d="M167.07,474.73 C146.43,502.38 124.8516,531.2937 110.6716,550.2837" fill="none" id="steps-to-ffmpeg_bin" style="stroke:#6B7280;stroke-width:1.8;"/><polygon fill="#6B7280" points="107.68,554.29,116.2699,549.4719,110.6716,550.2837,109.8597,544.6854,107.68,554.29" style="stroke:#6B7280;stroke-width:1.8;stroke-linejoin:miter;stroke-miterlimit:10;"/></g><!--link steps to git_bin--><g class="link" data-entity-1="ent0007" data-entity-2="ent0011" data-link-type="dependency" data-source-line="37" id="lnk18"><path d="M203,474.73 C203,502.38 203,530.3 203,549.29" fill="none" id="steps-to-git_bin" style="stroke:#6B7280;stroke-width:1.8;"/><polygon fill="#6B7280" points="203,554.29,207,545.29,203,549.29,199,545.29,203,554.29" style="stroke:#6B7280;stroke-width:1.8;stroke-linejoin:miter;stroke-miterlimit:10;"/></g><!--link steps to fs_bin--><g class="link" data-entity-1="ent0007" data-entity-2="ent0012" data-link-type="dependency" data-source-line="38" id="lnk19"><path d="M232.88,474.73 C250.05,502.38 267.8527,531.0521 279.6427,550.0421" fill="none" id="steps-to-fs_bin" style="stroke:#6B7280;stroke-width:1.8;"/><polygon fill="#6B7280" points="282.28,554.29,280.9311,544.5339,279.6427,550.0421,274.1345,548.7537,282.28,554.29" style="stroke:#6B7280;stroke-width:1.8;stroke-linejoin:miter;stroke-miterlimit:10;"/></g><?plantuml-src ZLDDRzD04BtxLuoISqZSj6xB0IbERBM8ZwgDG8YWQcsFdLNitMLtNIW8YVz0RnmYuCeLSUUdz1Vq9p2sqzPfWuGlbdVUl7dlxTWik51Cim8Y5YyoBKkHZ6KkDNJ3-d7C3IB1b9Mv3QMmAuWRkFwslndoZ1K8dSTeVSsuCF1K2jdP33tX7n1SjrKSQItVJUSyNWWq1jm7UwtY4Ibb6VfI9wXNIhoXvuNkVL1Bx71tE1WDMv1ZZ2qJMRvYkXstvJXMAh0I8ccj9ArS4vPBuJZwkWawLylb3uYBfC_FU8AoDy_DJ8nbf1cCdnp2dz-GvYm36cQuoAflfL7ZMuZd62ywm0p4EOTkC0dsmy1nL2Ev8hxu1KSQ3GhBgh6GitFKTOTg7tU3GRWL1l3H0MW9uyAY5YplsvBFX5z64PrEaLKISdw6a30pZoJJIKr9g6kcTHvTYgESBezS7K8VX1IzwVGLoDAgqZPggl9DywSr3yllC955LO-bHe3BpnS0Dz8KLvXpWJLDqk2w4pSS1JjtxHoNGg2U2QafE6CritITPCLWmTISk4rDeclOQJrinRJEGz7HNQ3F31wWbZDXq9RgfTGBGx9n9c9PLF6Q5zLrLf_Y3BMToeCd9pEHSKj6YeBRlYhDdCevCb6gUhQng4nxQajBxtLtiBFlUVjlUeyQu5fGbp-_mlCJYXVVDz7GticyiIJDQNtpz3CEm-tGkvjCcXOAC-fDKwLbr8JP79v6LQ1DsteJ6QbnzFutAEKvcdDIMpISPWrA-glD9MUxu-4ec5JEQ8lk7zRxuLGB1dKEmMWdg7De1_GGhfPVla50qL82JhDJ_ujkaYUqv-zkxGqgz6q0cwehsniRQvVENm00?></g></svg>