<svg xmlns="http://www.w3.org/2000/svg" xmlns:xlink="http://www.w3.org/1999/xlink" contentStyleType="text/css" data-diagram-type="DESCRIPTION" height="483px" preserveAspectRatio="none" style="width:1585px;height:483px;background:#FFFFFF;" version="1.1" viewBox="0 0 1585 483" width="1585px" zoomAndPan="magnify"><?plantuml 1.2026.6?><defs/><g><!--cluster cli--><g class="cluster" data-qualified-name="cli" data-source-line="14" id="ent0001"><path d="M306.38,6 L527.3195,6 A3.75,3.75 0 0 1 529.8195,8.5 L536.8195,24.9551 L877.38,24.9551 A2.5,2.5 0 0 1 879.88,27.4551 L879.88,111.41 A2.5,2.5 0 0 1 877.38,113.91 L306.38,113.91 A2.5,2.5 0 0 1 303.88,111.41 L303.88,8.5 A2.5,2.5 0 0 1 306.38,6" fill="#EDE9FE" style="stroke:#6366F1;stroke-width:1.5;"/><line style="stroke:#6366F1;stroke-width:1.5;" x1="303.88" x2="536.8195" y1="24.9551" y2="24.9551"/><text fill="#3730A3" font-family="'JetBrains Mono'" font-size="11" font-weight="700" lengthAdjust="spacing" textLength="219.9395" x="307.88" y="18.6348">&#128995;  cmd/ivideo-hls  &#183;  CLI entry-point</text></g><!--cluster ui--><g class="cluster" data-qualified-name="ui" data-source-line="20" id="ent0005"><path d="M219.38,159.91 L432.4293,159.91 A3.75,3.75 0 0 1 434.9293,162.41 L441.9293,178.8651 L795.38,178.8651 A2.5,2.5 0 0 1 797.88,181.3651 L797.88,265.32 A2.5,2.5 0 0 1 795.38,267.82 L219.38,267.82 A2.5,2.5 0 0 1 216.88,265.32 L216.88,162.41 A2.5,2.5 0 0 1 219.38,159.91" fill="#E0F2FE" style="stroke:#6366F1;stroke-width:1.5;"/><line style="stroke:#6366F1;stroke-width:1.5;" x1="216.88" x2="441.9293" y1="178.8651" y2="178.8651"/><text fill="#3730A3" font-family="'JetBrains Mono'" font-size="11" font-weight="700" lengthAdjust="spacing" textLength="212.0493" x="220.88" y="172.5448">&#128309;  internal/tui  &#183;  Presentation layer</text></g><!--cluster core--><g class="cluster" data-qualified-name="core" data-source-line="26" id="ent0009"><path d="M824.38,159.91 L1036.4088,159.91 A3.75,3.75 0 0 1 1038.9088,162.41 L1045.9088,178.8651 L1425.38,178.8651 A2.5,2.5 0 0 1 1427.88,181.3651 L1427.88,374.23 A2.5,2.5 0 0 1 1425.38,376.73 L824.38,376.73 A2.5,2.5 0 0 1 821.88,374.23 L821.88,162.41 A2.5,2.5 0 0 1 824.38,159.91" fill="#D1FAE5" style="stroke:#6366F1;stroke-width:1.5;"/><line style="stroke:#6366F1;stroke-width:1.5;" x1="821.88" x2="1045.9088" y1="178.8651" y2="178.8651"/><text fill="#3730A3" font-family="'JetBrains Mono'" font-size="11" font-weight="700" lengthAdjust="spacing" textLength="211.0288" x="825.88" y="172.5448">&#128994;  internal/pipeline  &#183;  Domain core</text></g><!--entity main--><g class="entity" data-qualified-name="cli.main" data-source-line="15" id="ent0002"><rect fill="#EDE9FE" height="45.9102" rx="2.5" ry="2.5" style="stroke:#181818;stroke-width:2;" width="212.0649" x="456.85" y="52"/><text fill="#1E1B4B" font-family="'JetBrains Mono'" font-size="11" lengthAdjust="spacing" textLength="26.3506" x="466.85" y="72.6348">main</text><text fill="#1E1B4B" font-family="'JetBrains Mono'" font-size="11" lengthAdjust="spacing" textLength="192.0649" x="466.85" y="85.5898">flag wiring &#183; prereq check &#183; dispatch</text></g><!--entity doctor_cmd--><g class="entity" data-qualified-name="cli.doctor_cmd" data-source-line="16" id="ent0003"><rect fill="#EDE9FE" height="45.9102" rx="2.5" ry="2.5" style="stroke:#181818;stroke-width:2;" width="102.3979" x="319.68" y="52"/><text fill="#1E1B4B" font-family="'JetBrains Mono'" font-size="11" lengthAdjust="spacing" textLength="34.6865" x="329.68" y="72.6348">doctor</text><text fill="#1E1B4B" font-family="'JetBrains Mono'" font-size="11" lengthAdjust="spacing" textLength="82.3979" x="329.68" y="85.5898">run diagnostics</text></g><!--entity install--><g class="entity" data-qualified-name="cli.install" data-source-line="17" id="ent0004"><rect fill="#EDE9FE" height="45.9102" rx="2.5" ry="2.5" style="stroke:#181818;stroke-width:2;" width="159.5679" x="704.1" y="52"/><text fill="#1E1B4B" font-family="'JetBrains Mono'" font-size="11" lengthAdjust="spacing" textLength="64.1094" x="714.1" y="72.6348">install-deps</text><text fill="#1E1B4B" font-family="'JetBrains Mono'" font-size="11" lengthAdjust="spacing" textLength="139.5679" x="714.1" y="85.5898">download ffmpeg binaries</text></g><!--entity picker--><g class="entity" data-qualified-name="ui.picker" data-source-line="21" id="ent0006"><rect fill="#E0F2FE" height="45.9102" rx="2.5" ry="2.5" style="stroke:#181818;stroke-width:2;" width="186.2085" x="595.78" y="205.91"/><text fill="#1E1B4B" font-family="'JetBrains Mono'" font-size="11" lengthAdjust="spacing" textLength="32.7959" x="605.78" y="226.5448">picker</text><text fill="#1E1B4B" font-family="'JetBrains Mono'" font-size="11" lengthAdjust="spacing" textLength="166.2085" x="605.78" y="239.4998">video checklist + config screen</text></g><!--entity settings_node--><g class="entity" data-qualified-name="ui.settings_node" data-source-line="22" id="ent0007"><rect fill="#E0F2FE" height="45.9102" rx="2.5" ry="2.5" style="stroke:#181818;stroke-width:2;" width="144.9961" x="232.39" y="205.91"/><text fill="#1E1B4B" font-family="'JetBrains Mono'" font-size="11" lengthAdjust="spacing" textLength="42.437" x="242.39" y="226.5448">settings</text><text fill="#1E1B4B" font-family="'JetBrains Mono'" font-size="11" lengthAdjust="spacing" textLength="124.9961" x="242.39" y="239.4998">persistent config editor</text></g><!--entity runner_ui--><g class="entity" data-qualified-name="ui.runner_ui" data-source-line="23" id="ent0008"><rect fill="#E0F2FE" height="45.9102" rx="2.5" ry="2.5" style="stroke:#181818;stroke-width:2;" width="148.6377" x="412.56" y="205.91"/><text fill="#1E1B4B" font-family="'JetBrains Mono'" font-size="11" lengthAdjust="spacing" textLength="35.6104" x="422.56" y="226.5448">runner</text><text fill="#1E1B4B" font-family="'JetBrains Mono'" font-size="11" lengthAdjust="spacing" textLength="128.6377" x="422.56" y="239.4998">live progress dashboard</text></g><!--entity config_node--><g class="entity" data-qualified-name="core.config_node" data-source-line="27" id="ent0010"><rect fill="#D1FAE5" height="45.9102" rx="2.5" ry="2.5" style="stroke:#181818;stroke-width:2;" width="175.1816" x="838.29" y="205.91"/><text fill="#1E1B4B" font-family="'JetBrains Mono'" font-size="11" lengthAdjust="spacing" textLength="33.3008" x="848.29" y="226.5448">config</text><text fill="#1E1B4B" font-family="'JetBrains Mono'" font-size="11" lengthAdjust="spacing" textLength="155.1816" x="848.29" y="239.4998">Config struct &#183; quality enums</text></g><!--entity processor--><g class="entity" data-qualified-name="core.processor" data-source-line="28" id="ent0011"><rect fill="#D1FAE5" height="45.9102" rx="2.5" ry="2.5" style="stroke:#181818;stroke-width:2;" width="180.9609" x="1048.4" y="205.91"/><text fill="#1E1B4B" font-family="'JetBrains Mono'" font-size="11" lengthAdjust="spacing" textLength="52.4165" x="1058.4" y="226.5448">processor</text><text fill="#1E1B4B" font-family="'JetBrains Mono'" font-size="11" lengthAdjust="spacing" textLength="160.9609" x="1058.4" y="239.4998">Runner &#183; CPU/net semaphores</text></g><!--entity ffmpeg_node--><g class="entity" data-qualified-name="core.ffmpeg_node" data-source-line="29" id="ent0012"><rect fill="#D1FAE5" height="45.9102" rx="2.5" ry="2.5" style="stroke:#181818;stroke-width:2;" width="195.248" x="1041.26" y="314.82"/><text fill="#1E1B4B" font-family="'JetBrains Mono'" font-size="11" lengthAdjust="spacing" textLength="38.269" x="1051.26" y="335.4548">ffmpeg</text><text fill="#1E1B4B" font-family="'JetBrains Mono'" font-size="11" lengthAdjust="spacing" textLength="175.248" x="1051.26" y="348.4098">compress &#183; HLS convert &#183; rename</text></g><!--entity manifest_node--><g class="entity" data-qualified-name="core.manifest_node" data-source-line="30" id="ent0013"><rect fill="#D1FAE5" height="45.9102" rx="2.5" ry="2.5" style="stroke:#181818;stroke-width:2;" width="92.9502" x="1271.41" y="314.82"/><text fill="#1E1B4B" font-family="'JetBrains Mono'" font-size="11" lengthAdjust="spacing" textLength="46.2451" x="1281.41" y="335.4548">manifest</text><text fill="#1E1B4B" font-family="'JetBrains Mono'" font-size="11" lengthAdjust="spacing" textLength="72.9502" x="1281.41" y="348.4098">urls.txt writer</text></g><!--entity scan_node--><g class="entity" data-qualified-name="core.scan_node" data-source-line="31" id="ent0014"><rect fill="#D1FAE5" height="45.9102" rx="2.5" ry="2.5" style="stroke:#181818;stroke-width:2;" width="102.3335" x="870.72" y="314.82"/><text fill="#1E1B4B" font-family="'JetBrains Mono'" font-size="11" lengthAdjust="spacing" textLength="24.1431" x="880.72" y="335.4548">scan</text><text fill="#1E1B4B" font-family="'JetBrains Mono'" font-size="11" lengthAdjust="spacing" textLength="82.3335" x="880.72" y="348.4098">video discovery</text></g><!--entity events_node--><g class="entity" data-qualified-name="core.events_node" data-source-line="32" id="ent0015"><rect fill="#D1FAE5" height="45.9102" rx="2.5" ry="2.5" style="stroke:#181818;stroke-width:2;" width="147.5474" x="1264.11" y="205.91"/><text fill="#1E1B4B" font-family="'JetBrains Mono'" font-size="11" lengthAdjust="spacing" textLength="34.4985" x="1274.11" y="226.5448">events</text><text fill="#1E1B4B" font-family="'JetBrains Mono'" font-size="11" lengthAdjust="spacing" textLength="127.5474" x="1274.11" y="239.4998">Event &#183; Emitter interface</text></g><!--entity appcfg--><g class="entity" data-qualified-name="appcfg" data-source-line="35" id="ent0016"><rect fill="#FEF3C7" height="45.9102" rx="2.5" ry="2.5" style="stroke:#181818;stroke-width:2;" width="193.2715" x="120.25" y="314.82"/><text fill="#1E1B4B" font-family="'JetBrains Mono'" font-size="11" lengthAdjust="spacing" textLength="118.3022" x="130.25" y="335.4548">&#128992; internal/appconfig</text><text fill="#1E1B4B" font-family="'JetBrains Mono'" font-size="11" lengthAdjust="spacing" textLength="173.2715" x="130.25" y="348.4098">load &#183; save &#183; validate config.toml</text></g><!--entity depspkg--><g class="entity" data-qualified-name="depspkg" data-source-line="36" id="ent0017"><rect fill="#FEF3C7" height="45.9102" rx="2.5" ry="2.5" style="stroke:#181818;stroke-width:2;" width="177.8618" x="1293.95" y="423.73"/><text fill="#1E1B4B" font-family="'JetBrains Mono'" font-size="11" lengthAdjust="spacing" textLength="90.6626" x="1303.95" y="444.3648">&#128992; internal/deps</text><text fill="#1E1B4B" font-family="'JetBrains Mono'" font-size="11" lengthAdjust="spacing" textLength="157.8618" x="1303.95" y="457.3198">resolve ffmpeg/ffprobe paths</text></g><!--entity doctor_lib--><g class="entity" data-qualified-name="doctor_lib" data-source-line="37" id="ent0018"><rect fill="#FEF3C7" height="45.9102" rx="2.5" ry="2.5" style="stroke:#181818;stroke-width:2;" width="119.7666" x="7" y="205.91"/><text fill="#1E1B4B" font-family="'JetBrains Mono'" font-size="11" lengthAdjust="spacing" textLength="99.7666" x="17" y="226.5448">&#128992; internal/doctor</text><text fill="#1E1B4B" font-family="'JetBrains Mono'" font-size="11" lengthAdjust="spacing" textLength="82.8921" x="17" y="239.4998">env diagnostics</text></g><!--link main to picker--><g class="link" data-entity-1="ent0002" data-entity-2="ent0006" data-link-type="dependency" data-source-line="39" id="lnk19"><path d="M581.48,98.37 C605.43,127.26 643.6385,173.3111 667.4285,202.0011" fill="none" id="main-to-picker" style="stroke:#7C3AED;stroke-width:1.8;"/><polygon fill="#7C3AED" points="670.62,205.85,667.9543,196.3687,667.4285,202.0011,661.7961,201.4752,670.62,205.85" style="stroke:#7C3AED;stroke-width:1.8;stroke-linejoin:miter;stroke-miterlimit:10;"/></g><!--link main to settings_node--><g class="link" data-entity-1="ent0002" data-entity-2="ent0007" data-link-type="dependency" data-source-line="40" id="lnk20"><path d="M502.91,98.34 C469.9,111.8 428.86,130.48 394.88,151.91 C370.16,167.51 348.6231,185.9661 331.2131,202.2361" fill="none" id="main-to-settings_node" style="stroke:#7C3AED;stroke-width:1.8;"/><polygon fill="#7C3AED" points="327.56,205.65,336.8667,202.4275,331.2131,202.2361,331.4045,196.5825,327.56,205.65" style="stroke:#7C3AED;stroke-width:1.8;stroke-linejoin:miter;stroke-miterlimit:10;"/></g><!--link main to runner_ui--><g class="link" data-entity-1="ent0002" data-entity-2="ent0008" data-link-type="dependency" data-source-line="41" id="lnk21"><path d="M551.67,98.37 C537.22,127.26 514.4867,172.6882 500.1367,201.3782" fill="none" id="main-to-runner_ui" style="stroke:#7C3AED;stroke-width:1.8;"/><polygon fill="#7C3AED" points="497.9,205.85,505.5035,199.5901,500.1367,201.3782,498.3486,196.0114,497.9,205.85" style="stroke:#7C3AED;stroke-width:1.8;stroke-linejoin:miter;stroke-miterlimit:10;"/></g><!--link main to config_node--><g class="link" data-entity-1="ent0002" data-entity-2="ent0010" data-link-type="dependency" data-source-line="42" id="lnk22"><path d="M613.17,98.38 C635.33,107.27 661.96,116.61 686.88,121.91 C714.11,127.7 786.11,119.41 811.88,129.91 C851.76,146.15 884.3127,178.3738 904.7427,201.9138" fill="none" id="main-to-config_node" style="stroke:#7C3AED;stroke-width:1.8;"/><polygon fill="#7C3AED" points="908.02,205.69,905.1418,196.2711,904.7427,201.9138,899.1,201.5147,908.02,205.69" style="stroke:#7C3AED;stroke-width:1.8;stroke-linejoin:miter;stroke-miterlimit:10;"/></g><!--link main to appcfg--><g class="link" data-entity-1="ent0002" data-entity-2="ent0016" data-link-type="dependency" data-source-line="43" id="lnk23"><path d="M510.73,98.39 C489.15,106.89 463.65,115.95 439.88,121.91 C391.38,134.07 249.8,114.27 216.88,151.91 C177.06,197.45 194.3074,271.4137 207.0074,309.7437" fill="none" id="main-to-appcfg" style="stroke:#7C3AED;stroke-width:1.8;"/><polygon fill="#7C3AED" points="208.58,314.49,209.5463,304.6887,207.0074,309.7437,201.9523,307.2048,208.58,314.49" style="stroke:#7C3AED;stroke-width:1.8;stroke-linejoin:miter;stroke-miterlimit:10;"/></g><!--link main to depspkg--><g class="link" data-entity-1="ent0002" data-entity-2="ent0017" data-link-type="dependency" data-source-line="44" id="lnk24"><path d="M612.22,98.3 C634.54,107.35 661.56,116.84 686.88,121.91 C727.28,130 1399.35,122.19 1427.88,151.91 C1499.56,226.54 1460.23,286.44 1427.88,384.73 C1423.2,398.97 1416.976,408.7915 1407.946,419.5415" fill="none" id="main-to-depspkg" style="stroke:#7C3AED;stroke-width:1.8;"/><polygon fill="#7C3AED" points="1404.73,423.37,1413.5815,419.0514,1407.946,419.5415,1407.4559,413.9059,1404.73,423.37" style="stroke:#7C3AED;stroke-width:1.8;stroke-linejoin:miter;stroke-miterlimit:10;"/></g><!--link doctor_cmd to doctor_lib--><g class="link" data-entity-1="ent0003" data-entity-2="ent0018" data-link-type="dependency" data-source-line="45" id="lnk25"><path d="M319.35,80.09 C273.17,85.72 205.03,98.96 153.88,129.91 C122.36,148.98 98.6847,178.994 83.5047,201.514" fill="none" id="doctor_cmd-to-doctor_lib" style="stroke:#7C3AED;stroke-width:1.8;"/><polygon fill="#7C3AED" points="80.71,205.66,89.0573,200.4329,83.5047,201.514,82.4236,195.9614,80.71,205.66" style="stroke:#7C3AED;stroke-width:1.8;stroke-linejoin:miter;stroke-miterlimit:10;"/></g><!--link install to depspkg--><g class="link" data-entity-1="ent0004" data-entity-2="ent0017" data-link-type="dependency" data-source-line="46" id="lnk26"><path d="M863.91,76.08 C1040.04,77.21 1449,84.71 1490.88,129.91 C1570.58,215.92 1553.29,294.46 1490.88,393.73 C1482.97,406.32 1475.4138,413.4993 1462.3438,420.8093" fill="none" id="install-to-depspkg" style="stroke:#7C3AED;stroke-width:1.8;"/><polygon fill="#7C3AED" points="1457.98,423.25,1467.7875,422.3479,1462.3438,420.8093,1463.8824,415.3657,1457.98,423.25" style="stroke:#7C3AED;stroke-width:1.8;stroke-linejoin:miter;stroke-miterlimit:10;"/></g><!--link picker to scan_node--><g class="link" data-entity-1="ent0006" data-entity-2="ent0014" data-link-type="dependency" data-source-line="48" id="lnk27"><path d="M737.73,252.28 C777.49,270.52 828.8056,294.0647 868.5556,312.3047" fill="none" id="picker-to-scan_node" style="stroke:#0EA5E9;stroke-width:1.8;"/><polygon fill="#0EA5E9" points="873.1,314.39,866.5883,307.001,868.5556,312.3047,863.2518,314.272,873.1,314.39" style="stroke:#0EA5E9;stroke-width:1.8;stroke-linejoin:miter;stroke-miterlimit:10;"/></g><!--link runner_ui to events_node--><g class="link" data-entity-1="ent0008" data-entity-2="ent0015" data-link-type="dependency" data-source-line="49" id="lnk28"><path d="M505.57,205.51 C525.18,183.03 558.29,150.51 595.38,136.91 C628.45,124.78 1196.31,124.78 1229.38,136.91 C1266.47,150.51 1296.2922,179.263 1315.9122,201.743" fill="none" id="runner_ui-to-events_node" style="stroke:#0EA5E9;stroke-width:1.8;"/><polygon fill="#0EA5E9" points="1319.2,205.51,1316.2956,196.0991,1315.9122,201.743,1310.2684,201.3596,1319.2,205.51" style="stroke:#0EA5E9;stroke-width:1.8;stroke-linejoin:miter;stroke-miterlimit:10;"/></g><!--link settings_node to appcfg--><g class="link" data-entity-1="ent0007" data-entity-2="ent0016" data-link-type="dependency" data-source-line="50" id="lnk29"><path d="M286.44,252.28 C271.42,270.52 253.4971,292.2892 238.4871,310.5292" fill="none" id="settings_node-to-appcfg" style="stroke:#0EA5E9;stroke-width:1.8;"/><polygon fill="#0EA5E9" points="235.31,314.39,244.1175,309.9822,238.4871,310.5292,237.9402,304.8988,235.31,314.39" style="stroke:#0EA5E9;stroke-width:1.8;stroke-linejoin:miter;stroke-miterlimit:10;"/></g><!--link processor to ffmpeg_node--><g class="link" data-entity-1="ent0011" data-entity-2="ent0012" data-link-type="dependency" data-source-line="52" id="lnk30"><path d="M1138.88,252.28 C1138.88,270.52 1138.88,291.15 1138.88,309.39" fill="none" id="processor-to-ffmpeg_node" style="stroke:#059669;stroke-width:1.8;"/><polygon fill="#059669" points="1138.88,314.39,1142.88,305.39,1138.88,309.39,1134.88,305.39,1138.88,314.39" style="stroke:#059669;stroke-width:1.8;stroke-linejoin:miter;stroke-miterlimit:10;"/></g><!--link processor to manifest_node--><g class="link" data-entity-1="ent0011" data-entity-2="ent0013" data-link-type="dependency" data-source-line="53" id="lnk31"><path d="M1176.41,252.28 C1206.96,270.52 1245.5773,293.5862 1276.1173,311.8262" fill="none" id="processor-to-manifest_node" style="stroke:#059669;stroke-width:1.8;"/><polygon fill="#059669" points="1280.41,314.39,1274.7342,306.341,1276.1173,311.8262,1270.6322,313.2093,1280.41,314.39" style="stroke:#059669;stroke-width:1.8;stroke-linejoin:miter;stroke-miterlimit:10;"/></g><!--link processor to scan_node--><g class="link" data-entity-1="ent0011" data-entity-2="ent0014" data-link-type="dependency" data-source-line="54" id="lnk32"><path d="M1093.39,252.28 C1056.36,270.52 1008.8151,293.9401 971.7951,312.1801" fill="none" id="processor-to-scan_node" style="stroke:#059669;stroke-width:1.8;"/><polygon fill="#059669" points="967.31,314.39,977.1511,314.0004,971.7951,312.1801,973.6154,306.8241,967.31,314.39" style="stroke:#059669;stroke-width:1.8;stroke-linejoin:miter;stroke-miterlimit:10;"/></g><!--link ffmpeg_node to depspkg--><g class="link" data-entity-1="ent0012" data-entity-2="ent0017" data-link-type="dependency" data-source-line="55" id="lnk33"><path d="M1190.03,361.19 C1231.68,379.43 1285.5903,403.0534 1327.2203,421.2934" fill="none" id="ffmpeg_node-to-depspkg" style="stroke:#059669;stroke-width:1.8;"/><polygon fill="#059669" points="1331.8,423.3,1325.1618,416.0244,1327.2203,421.2934,1321.9513,423.3519,1331.8,423.3" style="stroke:#059669;stroke-width:1.8;stroke-linejoin:miter;stroke-miterlimit:10;"/></g><!--link doctor_lib to appcfg--><g class="link" data-entity-1="ent0018" data-entity-2="ent0016" data-link-type="dependency" data-source-line="56" id="lnk34"><path d="M98.33,252.28 C123.93,270.52 155.8184,293.2479 181.4084,311.4879" fill="none" id="doctor_lib-to-appcfg" style="stroke:#059669;stroke-width:1.8;"/><polygon fill="#059669" points="185.48,314.39,180.4729,305.9089,181.4084,311.4879,175.8295,312.4234,185.48,314.39" style="stroke:#059669;stroke-width:1.8;stroke-linejoin:miter;stroke-miterlimit:10;"/></g><!--link doctor_lib to depspkg--><g class="link" data-entity-1="ent0018" data-entity-2="ent0017" data-link-type="dependency" data-source-line="57" id="lnk35"><path d="M64.55,252.29 C62.35,286.79 63.98,352.29 102.88,384.73 C148.54,422.8 1005.3207,439.7093 1288.5307,444.2793" fill="none" id="doctor_lib-to-depspkg" style="stroke:#059669;stroke-width:1.8;"/><polygon fill="#059669" points="1293.53,444.36,1284.5957,440.2153,1288.5307,444.2793,1284.4666,448.2143,1293.53,444.36" style="stroke:#059669;stroke-width:1.8;stroke-linejoin:miter;stroke-miterlimit:10;"/></g><!--link processor to runner_ui--><g class="link" data-entity-1="ent0011" data-entity-2="ent0008" data-link-type="dependency" data-source-line="59" id="lnk36"><path d="M1115.57,205.68 C1095.17,187.14 1063.74,162.55 1030.88,151.91 C983,136.4 624.98,134.14 577.88,151.91 C549.04,162.79 526.3081,183.3746 509.5381,201.7746" fill="none" id="processor-to-runner_ui" style="stroke:#EF4444;stroke-width:2;"/><polygon fill="#EF4444" points="506.17,205.47,515.1888,201.5127,509.5381,201.7746,509.2762,196.1238,506.17,205.47" style="stroke:#EF4444;stroke-width:2;stroke-linejoin:miter;stroke-miterlimit:10;"/><text fill="#1E1B4B" font-family="'JetBrains Mono'" font-size="11" lengthAdjust="spacing" textLength="138.3579" x="664.88" y="141.5448">&#128683; forbidden dependency</text></g><?plantuml-src ZLHDR-Cs4BthLmoSOzT9l4wSfeS2ZYEZBRP5iDkUwYAWoP5Cc2Ar9EtKBVelUkebHNlikUYzlsX_GeUYP4jUEQWkal0U7sVUVBYrr2Mph80bu-lSceqMCwECXRDvzIHkpn2OiOtoSwDzJHcbexkhktxADwn067o5_iuogHryRRGPz5FVoPyGHgCMEBNMFDMNNCsl9kdrCVZjIlArHkTWTFvf2toWD5YETyOAjBN2P3oPp4SVargPZ6_6bzDnY_8MkMSwLxNIuRhNIU9D2Tx0qdXlA15fYIkDJf8owiBWm_Fpdm2y41ToAmMQuKevW7__0PYz-H9GUxiRbaPgFm3cW2i9P-bzUZjFuUS4m3Ptmw0WxnOwKoo79scbpeD8QT7YU-0hvElmBwGhcUUhIYoSQDIwMi9mR-n2susc8opNndd9NNKgOeyKSVzPgg1dIWq5bcwXXNdIoZ01MLQKcCDIQcObHgcQkjVvfUFBhty3CJnQpTI5tyZeoeD5HwwmO2CejaDRIMs2BvVprn_xKb8va7Aft8rEAEayV0BSw4pcuBX5r9LAv3PANHs7tfEhb5E9rf42HT58e93aIINHq1wr4TYlHAxg496IMwGAcTo6RX7ChPQ6ML79HCxZ8QqZSvx_Q9bJoXALr1WTkZTLORcn67k6Fk3iVZIVfjV7viJu5tfMM-7jXlkWydx3bFGxQi1DuMgPGAdJYcf7Hbl3AP7GDs-hw8FExE6x2usUR2bOkQ98ejYUsoyLcsMXkIdAoXnI-kBDkn335cqLe4LDQwCIY-mN8YkObXawlz0Rgzov_z73avM-Rfq6VK70SQQR3g8HueQYsCLo4_B2GTnIbr3BfE4TmauBwUdYMBkCyPX1f7LrgDuj8QhuxuU2ix9iAbSD5maxHir4xotLJJ2FTRtEQU-ewevm9ijfMQVpyUpcj7QSMtBTA5ACtbva6LLiITtA_AfU0qGhr_z7hzubgBUdTecIoxrEKZNlyFkpczbucjx_CFoydieUe3DhFVX-Y7gmLZlteD6i7g1EEsbjmIw-poXfjbll-QHUDGHUfjFhzBRAfsccv33-7KAhJvBkekdGwkYJmvG5-FfsCgdWrhoSedHcuXJf46vx0ZkK8xj2eJju7Uaf-E1MEu9qVaNFgx0mKRnQ6YKwnORFuCFpRtz1PknI2e4woA2c3xvB_WC0?></g></svg>