<svg xmlns="http://www.w3.org/2000/svg" xmlns:xlink="http://www.w3.org/1999/xlink" contentStyleType="text/css" data-diagram-type="ACTIVITY" height="581px" preserveAspectRatio="none" style="width:798px;height:581px;background:#FFFFFF;" version="1.1" viewBox="0 0 798 581" width="798px" zoomAndPan="magnify"><?plantuml 1.2026.6?><defs/><g><rect fill="none" height="14.1328" style="stroke:none;stroke-width:1;" width="751.2793" x="20" y="16.0313"/><rect fill="#EEF2FF" height="544.8594" style="stroke:#EEF2FF;stroke-width:1;" width="172.9336" x="20" y="16.0313"/><ellipse cx="107.4668" cy="45.1641" fill="#4F46E5" rx="10" ry="10" style="stroke:#222222;stroke-width:1;"/><rect fill="#F5F3FF" height="48.2656" rx="12.5" ry="12.5" style="stroke:#6366F1;stroke-width:0.5;" width="162.9336" x="26" y="75.1641"/><ellipse cx="41.5" cy="91.7969" fill="#1E1B4B" rx="2.5" ry="2.5"/><text fill="#1E1B4B" font-family="'JetBrains Mono'" font-size="12" lengthAdjust="spacing" textLength="58.0898" x="48" y="96.7656">.mp4 files</text><text fill="#1E1B4B" font-family="'JetBrains Mono'" font-size="12" lengthAdjust="spacing" textLength="142.9336" x="36" y="110.8984">(source dir or explicit -i)</text><line style="stroke:#000000;stroke-width:1.5;" x1="20" x2="20" y1="16.0313" y2="560.8906"/><rect fill="#F0FDF4" height="544.8594" style="stroke:#F0FDF4;stroke-width:1;" width="227.8184" x="192.9336" y="16.0313"/><rect fill="#F5F3FF" height="48.2656" rx="12.5" ry="12.5" style="stroke:#6366F1;stroke-width:0.5;" width="116.5859" x="249.5498" y="143.4297"/><text fill="#1E1B4B" font-family="'JetBrains Mono'" font-size="12" lengthAdjust="spacing" textLength="96.5859" x="259.5498" y="165.0313">clone workspace</text><text fill="#1E1B4B" font-family="'JetBrains Mono'" font-size="12" lengthAdjust="spacing" textLength="89.748" x="259.5498" y="179.1641">hero_&lt;name&gt;/</text><rect fill="#F5F3FF" height="48.2656" rx="12.5" ry="12.5" style="stroke:#6366F1;stroke-width:0.5;" width="163.0449" x="226.3203" y="211.6953"/><text fill="#1E1B4B" font-family="'JetBrains Mono'" font-size="12" lengthAdjust="spacing" textLength="143.0449" x="236.3203" y="233.2969">ffmpeg &#8212; HLS segments</text><text fill="#1E1B4B" font-family="'JetBrains Mono'" font-size="12" lengthAdjust="spacing" textLength="69.1582" x="236.3203" y="247.4297">.ts + .m3u8</text><rect fill="#F5F3FF" height="48.2656" rx="12.5" ry="12.5" style="stroke:#6366F1;stroke-width:0.5;" width="217.8184" x="198.9336" y="279.9609"/><text fill="#1E1B4B" font-family="'JetBrains Mono'" font-size="12" lengthAdjust="spacing" textLength="92.2676" x="208.9336" y="301.5625">rename outputs</text><text fill="#1E1B4B" font-family="'JetBrains Mono'" font-size="12" lengthAdjust="spacing" textLength="197.8184" x="208.9336" y="315.6953">.ts &#8594; .married  &#183;  .m3u8 &#8594; .single</text><line style="stroke:#000000;stroke-width:1.5;" x1="192.9336" x2="192.9336" y1="16.0313" y2="560.8906"/><rect fill="#EFF6FF" height="544.8594" style="stroke:#EFF6FF;stroke-width:1;" width="167.168" x="420.752" y="16.0313"/><rect fill="#F5F3FF" height="48.2656" rx="12.5" ry="12.5" style="stroke:#6366F1;stroke-width:0.5;" width="128.8145" x="440.9287" y="348.2266"/><text fill="#1E1B4B" font-family="'JetBrains Mono'" font-size="12" lengthAdjust="spacing" textLength="108.8145" x="450.9287" y="369.8281">git commit + push</text><text fill="#1E1B4B" font-family="'JetBrains Mono'" font-size="12" lengthAdjust="spacing" textLength="98.1621" x="450.9287" y="383.9609">branch per video</text><rect fill="#F5F3FF" height="34.1328" rx="12.5" ry="12.5" style="stroke:#6366F1;stroke-width:0.5;" width="157.168" x="426.752" y="416.4922"/><text fill="#1E1B4B" font-family="'JetBrains Mono'" font-size="12" lengthAdjust="spacing" textLength="137.168" x="436.752" y="438.0938">write urls.json manifest</text><line style="stroke:#000000;stroke-width:1.5;" x1="420.752" x2="420.752" y1="16.0313" y2="560.8906"/><rect fill="#FDF4FF" height="544.8594" style="stroke:#FDF4FF;stroke-width:1;" width="182.4609" x="587.9199" y="16.0313"/><rect fill="#F5F3FF" height="48.2656" rx="12.5" ry="12.5" style="stroke:#6366F1;stroke-width:0.5;" width="172.4609" x="593.9199" y="470.625"/><text fill="#1E1B4B" font-family="'JetBrains Mono'" font-size="12" lengthAdjust="spacing" textLength="109.6582" x="603.9199" y="492.2266">rm hero_&lt;name&gt;/</text><text fill="#1E1B4B" font-family="'JetBrains Mono'" font-size="12" lengthAdjust="spacing" textLength="152.4609" x="603.9199" y="506.3594">(when cfg.Cleanup = true)</text><ellipse cx="680.1504" cy="549.8906" fill="none" rx="11" ry="11" style="stroke:#222222;stroke-width:1;"/><ellipse cx="680.1504" cy="549.8906" fill="#222222" rx="6" ry="6" style="stroke:#222222;stroke-width:1;"/><line style="stroke:#000000;stroke-width:1.5;" x1="587.9199" x2="587.9199" y1="16.0313" y2="560.8906"/><line style="stroke:#000000;stroke-width:1.5;" x1="770.3809" x2="770.3809" y1="16.0313" y2="560.8906"/><line style="stroke:#4F46E5;stroke-width:1;" x1="107.4668" x2="107.4668" y1="55.1641" y2="75.1641"/><polygon fill="#4F46E5" points="103.4668,65.1641,107.4668,75.1641,111.4668,65.1641,107.4668,69.1641" style="stroke:#4F46E5;stroke-width:1;stroke-linejoin:miter;stroke-miterlimit:10;"/><line style="stroke:#4F46E5;stroke-width:1;" x1="307.8428" x2="307.8428" y1="191.6953" y2="211.6953"/><polygon fill="#4F46E5" points="303.8428,201.6953,307.8428,211.6953,311.8428,201.6953,307.8428,205.6953" style="stroke:#4F46E5;stroke-width:1;stroke-linejoin:miter;stroke-miterlimit:10;"/><line style="stroke:#4F46E5;stroke-width:1;" x1="307.8428" x2="307.8428" y1="259.9609" y2="279.9609"/><polygon fill="#4F46E5" points="303.8428,269.9609,307.8428,279.9609,311.8428,269.9609,307.8428,273.9609" style="stroke:#4F46E5;stroke-width:1;stroke-linejoin:miter;stroke-miterlimit:10;"/><line style="stroke:#4F46E5;stroke-width:1;" x1="505.3359" x2="505.3359" y1="396.4922" y2="416.4922"/><polygon fill="#4F46E5" points="501.3359,406.4922,505.3359,416.4922,509.3359,406.4922,505.3359,410.4922" style="stroke:#4F46E5;stroke-width:1;stroke-linejoin:miter;stroke-miterlimit:10;"/><line style="stroke:#4F46E5;stroke-width:1;" x1="680.1504" x2="680.1504" y1="518.8906" y2="538.8906"/><polygon fill="#4F46E5" points="676.1504,528.8906,680.1504,538.8906,684.1504,528.8906,680.1504,532.8906" style="stroke:#4F46E5;stroke-width:1;stroke-linejoin:miter;stroke-miterlimit:10;"/><line style="stroke:#4F46E5;stroke-width:1;" x1="107.4668" x2="107.4668" y1="123.4297" y2="128.4297"/><line style="stroke:#4F46E5;stroke-width:1;" x1="107.4668" x2="307.8428" y1="128.4297" y2="128.4297"/><line style="stroke:#4F46E5;stroke-width:1;" x1="307.8428" x2="307.8428" y1="128.4297" y2="143.4297"/><polygon fill="#4F46E5" points="303.8428,133.4297,307.8428,143.4297,311.8428,133.4297,307.8428,137.4297" style="stroke:#4F46E5;stroke-width:1;stroke-linejoin:miter;stroke-miterlimit:10;"/><line style="stroke:#4F46E5;stroke-width:1;" x1="307.8428" x2="307.8428" y1="328.2266" y2="333.2266"/><line style="stroke:#4F46E5;stroke-width:1;" x1="307.8428" x2="505.3359" y1="333.2266" y2="333.2266"/><line style="stroke:#4F46E5;stroke-width:1;" x1="505.3359" x2="505.3359" y1="333.2266" y2="348.2266"/><polygon fill="#4F46E5" points="501.3359,338.2266,505.3359,348.2266,509.3359,338.2266,505.3359,342.2266" style="stroke:#4F46E5;stroke-width:1;stroke-linejoin:miter;stroke-miterlimit:10;"/><line style="stroke:#4F46E5;stroke-width:1;" x1="505.3359" x2="505.3359" y1="450.625" y2="455.625"/><line style="stroke:#4F46E5;stroke-width:1;" x1="505.3359" x2="680.1504" y1="455.625" y2="455.625"/><line style="stroke:#4F46E5;stroke-width:1;" x1="680.1504" x2="680.1504" y1="455.625" y2="470.625"/><polygon fill="#4F46E5" points="676.1504,460.625,680.1504,470.625,684.1504,460.625,680.1504,464.625" style="stroke:#4F46E5;stroke-width:1;stroke-linejoin:miter;stroke-miterlimit:10;"/><text fill="#1E1B4B" font-family="'JetBrains Mono'" font-size="12" lengthAdjust="spacing" textLength="39.0234" x="86.9551" y="27.6328">Source</text><text fill="#1E1B4B" font-family="'JetBrains Mono'" font-size="12" lengthAdjust="spacing" textLength="41.707" x="285.9893" y="27.6328">Encode</text><text fill="#1E1B4B" font-family="'JetBrains Mono'" font-size="12" lengthAdjust="spacing" textLength="42.1348" x="483.2686" y="27.6328">Publish</text><text fill="#1E1B4B" font-family="'JetBrains Mono'" font-size="12" lengthAdjust="spacing" textLength="47.5313" x="655.3848" y="27.6328">Cleanup</text><?plantuml-src XP7DRjD058NtVeghTWDKcAPs3Ke1gIaU8LHGfMmZeSdusXxY-T6TcOQYB5Zn0AZlmfv7wPCmhfCegA7CnjASRyuzvzejfBQSk88v5uk6JD3LXUaCmI6xFudR4XNMF7IU6UtNoAWSJVB9VkGJLmW77z1FY4ljuAFHvc0_EfNV44OdE-8vaLckX-GiByhJNL5uUItzpSHGXRIcYgmes6WVzQ3NASl-whKX7oksOQQUa_zVi78xwm5o5PzBBur-FFmMsycKlSoEpxD_GSCEHqcoEYnBTiBO2gOca41O9QuFdOoVfShcKCiEtKm_SODQIOBeZbzj9uNqy5m-FUjDs35xn_8Lb5gOgZSPYyveXAMXXRDSu4otIERpQnt_yziNPycuhfN51kw-tyBxooauR1Hg7qUbti4Hf2eBho96sBy04xmD6_Nkny-eSoA95S3lNp3GmxsJkkdmFbJ9MD4tkmhpJhgsJzN4pC8e5Jz7O8DhPtfEN8iMB19SomfD7BeawH42TIxzuem6nRMiqVcXQYpQkrvqo7MmlIifs6qNrxLiKOEectH3lG5F0UEod3Ss-GC0?></g></svg>